# xmcd
#
# Track frame offsets:
#	150
#	16890
#	30308
#	43343
#	57968
#	70178
#	82306
#	97321
#	110836
#	125581
#
# Disc length: 1891 seconds
#
# Revision: 0
# Processed by: cddbd v1.5.2PL0 Copyright (c) Steve Scherf et al.
# Submitted via: audiograbber 1.83.01
#
DISCID=9007610a
DTITLE=Moe Bandy and Joe Stampley - Live From Bad Bob's, Memphis
DYEAR=1985
DGENRE=Country
TTITLE0=We've Got Our Moe-Joe Working'
TTITLE1=Hey Joe (Hey Joe)
TTITLE2=Daddy's Hony Tonk
TTITLE3=Holding The Bag
TTITLE4=The Boy's Night Out
TTITLE5=Tell Ole I Ain't Here, He Better Get On Home
TTITLE6=Where's The Dress
TTITLE7=Your Cheatin' Heart
TTITLE8=Still On A Roll
TTITLE9=Just Good Ol' Boys
EXTD=I created this CD from one of my LP's
EXTT0=
EXTT1=
EXTT2=
EXTT3=
EXTT4=
EXTT5=
EXTT6=
EXTT7=
EXTT8=
EXTT9=
PLAYORDER=
